<svg id="レイヤー_1" data-name="レイヤー 1" xmlns="http://www.w3.org/2000/svg" viewBox="0 0 20 7.33"><defs><style>.cls-1{fill:#fff;}.cls-2{fill:#231815;}</style></defs><title>icon_name</title><circle class="cls-1" cx="3" cy="4.33" r="2.69"/><circle class="cls-1" cx="10.9" cy="4.33" r="2.68"/><path class="cls-2" d="M19.93,1.28a2.11,2.11,0,0,0-3,0l-3.1,3.1a3,3,0,0,0-5.93.55A2.1,2.1,0,0,0,6,4.93,3,3,0,0,0,3.76,2.1l0.38-.38a1.48,1.48,0,0,1,2.08,0,0.32,0.32,0,0,0,.45-0.45,2.11,2.11,0,0,0-3,0L3,2A3,3,0,1,0,5.92,5.74h0A1.47,1.47,0,0,1,8,5.75H8a3,3,0,0,0,5.87-.51l3.5-3.5a1.48,1.48,0,0,1,2.08,0A0.32,0.32,0,1,0,19.93,1.28ZM3,7.37A2.37,2.37,0,1,1,5.39,5,2.37,2.37,0,0,1,3,7.37Zm7.9,0A2.37,2.37,0,1,1,13.29,5,2.37,2.37,0,0,1,10.92,7.37Z" transform="translate(-0.02 -0.67)"/></svg>