<?xml version="1.0" encoding="utf-8"?>
<!-- Generator: Adobe Illustrator 19.2.1, SVG Export Plug-In . SVG Version: 6.00 Build 0)  -->
<svg version="1.1" id="レイヤー_1" xmlns="http://www.w3.org/2000/svg" xmlns:xlink="http://www.w3.org/1999/xlink" x="0px"
	 y="0px" viewBox="0 0 92.8 150" style="enable-background:new 0 0 92.8 150;" xml:space="preserve">
<style type="text/css">
	.st0{fill-rule:evenodd;clip-rule:evenodd;fill:#006934;}
	.st1{fill-rule:evenodd;clip-rule:evenodd;fill:#009844;}
	.st2{fill-rule:evenodd;clip-rule:evenodd;fill:#1EAA39;}
	.st3{fill-rule:evenodd;clip-rule:evenodd;fill:#C30D23;}
	.st4{fill-rule:evenodd;clip-rule:evenodd;fill:#6A3906;}
</style>
<g>
	<ellipse class="st0" cx="46.5" cy="24.4" rx="24.4" ry="24.4"/>
	<circle class="st1" cx="22.6" cy="55.6" r="22.6"/>
	<path class="st2" d="M92.8,63.7c0,15.6-12.7,28.3-28.3,28.3c-15.6,0-28.3-12.7-28.3-28.3c0-15.6,12.7-28.3,28.3-28.3
		C80.1,35.4,92.8,48,92.8,63.7z"/>
	<circle class="st3" cx="8" cy="142.1" r="7.9"/>
	<path class="st4" d="M39.9,137.5c-5.3,2.1-8,8.2-15.6,7.5c4.3-6.2,7.5-11.7,11.5-16.4c3.6-4.3,4.7-9,4.8-14.2
		c0.3-15.8,0.1-31.5-8.1-45.9c-1-1.7-0.7-4.2-0.9-6.3c2.4,0.1,4.8,0.2,7.2,0.4c0,0.4,0,0.7,0,1.1c0.2-0.2,0.6-0.3,0.6-0.5
		c0.2-3.1,0.3-6.8,4.3-6.5c3.8,0.2,3.2,4,3.5,6.8c0.2,1.9,0.4,3.8,0.8,7c2.5-4.2,4.2-7.5,6.4-10.6c0.8-1.1,2.7-1.4,4-2.1
		c0.1,1.4,0.6,3,0.2,4.3c-2.8,8.1-6.3,15.9-8.5,24.2c-1.4,5.2-0.7,11-0.9,16.5c0,1.3,0.4,2.8,0.1,4c-1.9,9.1,1.5,16.6,6.4,23.9
		c2.1,3.1,2.4,7.3,3.6,11.1c-0.5,0.3-1.1,0.7-1.6,1c-2.7-2.1-5.4-4.3-8.6-6.8c-0.7,3.4-1.1,6.5-2,9.4c-0.5,1.5-2,2.5-3.1,3.8
		c-1-1.3-2.5-2.5-3-3.9C40.3,142.8,40.3,140.2,39.9,137.5z"/>
</g>
</svg>
