<?xml version="1.0" encoding="utf-8"?>
<!-- Generator: Adobe Illustrator 19.2.1, SVG Export Plug-In . SVG Version: 6.00 Build 0)  -->
<svg version="1.1" id="レイヤー_1" xmlns="http://www.w3.org/2000/svg" xmlns:xlink="http://www.w3.org/1999/xlink" x="0px"
	 y="0px" viewBox="0 0 20 20" style="enable-background:new 0 0 20 20;" xml:space="preserve">
<style type="text/css">
	.st0{fill-rule:evenodd;clip-rule:evenodd;fill:#191313;}
</style>
<path class="st0" d="M10,0.5C4.5,0.5,0,5,0,10.5c0,4.4,2.9,8.2,6.8,9.5c0.5,0.1,0.7-0.2,0.7-0.5c0-0.2,0-0.9,0-1.7
	c-2.8,0.6-3.4-1.3-3.4-1.3C3.7,15.3,3,15,3,15c-0.9-0.6,0.1-0.6,0.1-0.6c1,0.1,1.5,1,1.5,1c0.9,1.5,2.3,1.1,2.9,0.8
	c0.1-0.6,0.3-1.1,0.6-1.3C6,14.7,3.6,13.8,3.6,10c0-1.1,0.4-2,1-2.7C4.5,7,4.2,6,4.7,4.6c0,0,0.8-0.3,2.7,1C8.3,5.4,9.2,5.3,10,5.3
	c0.8,0,1.7,0.1,2.5,0.3c1.9-1.3,2.7-1,2.7-1C15.8,6,15.5,7,15.4,7.3c0.6,0.7,1,1.6,1,2.7c0,3.8-2.3,4.7-4.6,4.9
	c0.4,0.3,0.7,0.9,0.7,1.9c0,1.3,0,2.4,0,2.7c0,0.3,0.2,0.6,0.7,0.5c4-1.3,6.8-5.1,6.8-9.5C20,5,15.5,0.5,10,0.5z"/>
</svg>
