<?xml version="1.0" encoding="utf-8"?>
<!-- Generator: Adobe Illustrator 19.2.1, SVG Export Plug-In . SVG Version: 6.00 Build 0)  -->
<svg version="1.1" id="レイヤー_1" xmlns="http://www.w3.org/2000/svg" xmlns:xlink="http://www.w3.org/1999/xlink" x="0px"
	 y="0px" viewBox="0 0 20 17" style="enable-background:new 0 0 20 17;" xml:space="preserve">
<style type="text/css">
	.st0{fill:#30A6DF;}
</style>
<path class="st0" d="M20,2.7c-0.7,0.3-1.5,0.5-2.4,0.6C18.5,2.8,19.1,2,19.4,1c-0.8,0.5-1.7,0.8-2.6,1c-0.7-0.8-1.8-1.3-3-1.3
	c-2.3,0-4.1,1.8-4.1,4.1c0,0.3,0,0.6,0.1,0.9C6.4,5.6,3.4,4,1.4,1.5C1,2.1,0.8,2.8,0.8,3.6C0.8,5,1.6,6.2,2.7,7C2,7,1.4,6.8,0.8,6.5
	c0,0,0,0,0,0.1c0,2,1.4,3.6,3.3,4c-0.3,0.1-0.7,0.1-1.1,0.1c-0.3,0-0.5,0-0.8-0.1c0.5,1.6,2,2.8,3.8,2.9c-1.4,1.1-3.2,1.8-5.1,1.8
	c-0.3,0-0.7,0-1-0.1C1.8,16.3,4,17,6.3,17C13.8,17,18,10.7,18,5.3c0-0.2,0-0.4,0-0.5C18.8,4.2,19.5,3.5,20,2.7z"/>
</svg>
